<?xml version="1.0" encoding="UTF-8"?>
<svg height="100%" viewBox="0 0 1024 1024" version="1.1" xmlns="http://www.w3.org/2000/svg" xmlns:xlink="http://www.w3.org/1999/xlink">
    <defs>
        <circle id="path-1" cx="512" cy="512" r="512"/>
    </defs>
      <style>

        @keyframes anShow {
        from {
            -webkit-transform: translate3d(0, 0, 0);
            transform: translate3d(0,0, 0);
        }
        to {
            -webkit-transform: translate3d(40px, 40px, 0);
            transform: translate3d(40px, 40px, 0);
        }
        }
        @keyframes anShowTwo {
        from {
            -webkit-transform: translate3d(10px, 10px, 0);
            transform: translate3d(10px, 10px, 0);
        }
        to {
            -webkit-transform: translate3d(20px, 20px, 0);
            transform: translate3d(20px, 20px, 0);
        }
        }
        @keyframes anNum {
        from {
            -webkit-transform: rotate(0) translate3d(0, 0, 0);
            transform: rotate(0) translate3d(0, 0, 0);
        }
        to {
            -webkit-transform: rotate(5deg) translate3d(5px, 5px, 0);
            transform: rotate(5deg) translate3d(5px, 5px, 0);
        }
        }
        @keyframes anNumTwo {
        from {
            -webkit-transform: rotate(0) translate3d(0, 0, 0);
            transform: rotate(0) translate3d(0, 0, 0);
        }
        to {
            -webkit-transform: rotate(-5deg) translate3d(10px, 15px, 0);
            transform: rotate(-5deg) translate3d(10px, 15px, 0);
        }
        }
        @keyframes anNumOne {
        from {
            -webkit-transform: rotate(0) translate3d(0, 0, 0);
            transform: rotate(0) translate3d(0, 0, 0);
        }
        to {
            -webkit-transform: rotate(-5deg) translate3d(0, 15px, 0);
            transform: rotate(-5deg) translate3d(0, 15px, 0);
        }
        }
        @keyframes yun {
        from {
            -webkit-transform:  translate3d(-50px, 0, 0);
            transform: translate3d(-150px, 0, 0);
        }
        to {
            -webkit-transform:  translate3d(30px, 0, 0);
            transform:  translate3d(150px, 0, 0);
        }
        }
        .one-five {
            animation: anShowTwo 1.5s ease-in-out infinite;
            animation-direction: alternate;
        }
        .two-five {
        animation: anShow 3.5s ease-in-out infinite;
        animation-direction: alternate;
        }

        .three-five {
        animation: anShow 4.5s ease-in-out infinite;
        animation-direction: alternate;
        }
        .two-num{
        animation: anShowTwo 2.5s ease-in-out infinite;
        animation-direction: alternate;
        }
        .three-num{
        animation: anNum 4.5s ease-in-out infinite;
        animation-direction: alternate;
        }
        .yun-one{
        animation: yun 10s ease-in-out infinite;
        animation-direction: alternate;
        }
        .yun-two{
        animation: yun 10s ease-in-out infinite;
        animation-direction: alternate;
        }
        .yun-g{
        animation: yun 15s ease-in-out infinite;
        animation-direction: alternate;
        }
    </style>
    <g id="Page-1" stroke="none" stroke-width="1" fill="none" fill-rule="evenodd">
        <g id="error">
            <mask id="mask-2" fill="white">
                <use xlink:href="#path-1"/>
            </mask>
            <g id="path-1"/>
            <g id="Group" mask="url(#mask-2)" fill-rule="nonzero">
                <g>
                    <polygon id="Combined-Shape" fill="#B5E4FA" points="0 989.222642 0 0 1024 0 1024 989.222642"/>
                    <path d="M830.960533,219.493111 L827.254092,219.493111 C821.993279,219.493111 817.728548,215.117327 817.728548,209.719525 L817.728548,206.18278 C817.754125,204.649497 816.622459,203.355663 815.134039,203.216478 C814.377844,203.174983 813.637878,203.451823 813.085199,203.983004 C812.532521,204.514184 812.214968,205.253722 812.205955,206.030662 L812.205955,209.833613 C812.205955,215.231416 807.94122,219.607199 802.680407,219.607199 L798.973969,219.607199 C798.24014,219.597023 797.53295,219.889019 797.010537,220.417887 C796.488125,220.946756 796.194072,221.668379 796.194139,222.421383 C796.194139,223.996617 797.438712,225.273597 798.973969,225.273597 L802.680407,225.273597 C807.94122,225.273597 812.205955,229.64938 812.205955,235.047183 L812.205955,238.545898 C812.161833,240.107188 813.319797,241.429176 814.837526,241.55023 C815.596764,241.592488 816.339032,241.309467 816.887124,240.768734 C817.435215,240.228001 817.739939,239.478085 817.728548,238.698016 L817.728548,234.895064 C817.728548,229.497262 821.993279,225.121479 827.254092,225.121479 L830.960533,225.121479 C832.481297,225.100672 833.703432,223.829766 833.703297,222.269265 C833.683019,220.729906 832.460963,219.49297 830.960533,219.493111 Z" id="Shape" fill="#FAFBFC"/>
                    <path d="M159.881833,360.896014 L158.093871,360.896014 C155.446627,360.896014 153.300612,358.707278 153.300612,356.007336 L153.300612,354.222581 C153.322347,353.44415 152.731598,352.789997 151.969151,352.748218 C151.592942,352.726868 151.224729,352.864546 150.951197,353.12884 C150.677666,353.393134 150.522982,353.760693 150.523565,354.144983 L150.523565,356.007336 C150.502868,358.698487 148.368929,360.874906 145.730305,360.896014 L143.904301,360.896014 C143.147946,360.896014 142.534799,361.521367 142.534799,362.292779 C142.53452,363.070711 143.141832,363.707318 143.904301,363.728343 L145.730305,363.728343 C147.008175,363.728302 148.23316,364.24868 149.133172,365.173894 C150.033184,366.099108 150.533706,367.352553 150.523565,368.65582 L150.523565,370.401776 C150.517374,371.167225 151.072639,371.816827 151.816983,371.914938 C152.203287,371.936267 152.581167,371.79449 152.861826,371.522923 C153.142485,371.251356 153.301177,370.873944 153.300612,370.479374 L153.300612,368.65582 C153.290375,367.356089 153.79209,366.10656 154.693229,365.187482 C155.594368,364.268405 156.819509,363.756702 158.093871,363.767142 L159.881833,363.767142 C160.650769,363.746762 161.269395,363.115822 161.289377,362.331578 C161.289377,361.538738 160.659198,360.896014 159.881833,360.896014 Z" id="Shape" fill="#FAFBFC"/>
                    <path d="M460.047885,111.735831 L458.230428,111.735831 C455.605147,111.758523 453.442024,109.648972 453.358104,106.984175 L453.358104,105.020681 C453.380201,104.232802 452.779706,103.570711 452.004684,103.528425 C451.619266,103.494546 451.238001,103.629777 450.957158,103.899968 C450.67632,104.170159 450.522757,104.549481 450.535251,104.942141 L450.535251,106.984175 C450.535251,109.716883 448.353839,111.93218 445.662928,111.93218 L444.000151,111.93218 C443.225103,111.953461 442.607777,112.597793 442.608059,113.385166 C442.608059,113.760107 442.754727,114.119691 443.015794,114.384814 C443.276862,114.649938 443.630945,114.798882 444.000151,114.798882 L445.856273,114.798882 C448.538421,114.820246 450.707561,117.023078 450.728596,119.746888 L450.728596,121.553302 C450.823948,122.095821 451.21332,122.536864 451.733999,122.692129 C452.120047,122.71348 452.498169,122.575262 452.78226,122.308952 C453.066351,122.042642 453.23222,121.670911 453.2421,121.278413 L453.2421,119.550538 C453.2421,116.81783 455.423512,114.602533 458.114423,114.602533 L459.931877,114.602533 C460.707206,114.60282 461.341681,113.975902 461.362637,113.188817 C461.347255,112.43735 460.78392,111.814788 460.047885,111.735831 Z" id="Shape" fill="#FAFBFC"/>
                    <path d="M474.958754,326.403824 L473.170794,326.403824 C471.896432,326.414286 470.671292,325.901503 469.770154,324.980484 C468.869015,324.059465 468.3673,322.807296 468.377536,321.50482 L468.377536,319.755176 C468.400196,318.967767 467.814441,318.300668 467.046074,318.238818 C466.666222,318.228321 466.298359,318.375241 466.026106,318.646176 C465.753853,318.917111 465.600347,319.289042 465.600486,319.677414 L465.600486,321.50482 C465.600486,324.210465 463.454471,326.403824 460.807228,326.403824 L458.981226,326.403824 C458.218755,326.424894 457.611444,327.062845 457.611722,327.84242 C457.611722,328.615462 458.224869,329.242136 458.981226,329.242136 L460.807228,329.242136 C463.445851,329.263288 465.579792,331.444305 465.600486,334.14114 L465.600486,335.929665 C465.577781,336.695646 466.146555,337.345359 466.893907,337.407142 C467.27369,337.428282 467.64568,337.291433 467.925161,337.02776 C468.204638,336.764087 468.367818,336.396037 468.377536,336.007427 L468.377536,334.14114 C468.377536,331.435494 470.523551,329.242136 473.170794,329.242136 L474.958754,329.242136 C475.721503,329.242421 476.345685,328.621711 476.3663,327.84242 C476.346319,327.056521 475.727692,326.424247 474.958754,326.403824 Z" id="Shape" fill="#FAFBFC"/>
                    <path class="yun-one" d="M632.029304,241.554366 C599.919912,241.554366 573.89011,269.020416 573.89011,302.901507 L690.168498,302.901507 C690.168498,269.020416 664.138696,241.554366 632.029304,241.554366 Z" id="Shape" fill="#FAFBFC"/>
                    <path class="yun-two" d="M718.300366,272.227936 C702.763563,272.227936 690.168498,285.960961 690.168498,302.901507 L746.432234,302.901507 C746.432234,285.960961 733.837169,272.227936 718.300366,272.227936 Z" id="Shape" fill="#FAFBFC"/>
                    <path class="yun-g" d="M296.304642,168.704637 C277.664531,168.726817 262.564092,185.886604 262.564103,207.046599 L330.080586,207.046599 C330.080586,196.877679 326.522059,187.12525 320.187841,179.934737 C313.853623,172.744225 305.262579,168.704637 296.304642,168.704637 Z" id="Shape" fill="#FAFBFC"/>
                    <path class="yun-g" d="M350.675312,187.875999 C346.205161,187.865299 341.915389,189.881617 338.754509,193.479124 C335.593628,197.076631 333.82203,201.958968 333.831281,207.046599 L367.589967,207.046599 C367.599322,201.944978 365.818042,197.050361 362.641847,193.450516 C359.465651,189.850672 355.157676,187.843834 350.675312,187.875999 Z" id="Shape" fill="#FAFBFC"/>
                    <path class="three-five" d="M13.2600733,1021.96012 L996,1021.96012 L996,734.176819 C988.767176,733.385586 981.413806,732.989964 973.939885,732.989964 C963.669876,732.971504 953.407228,733.763987 943.200382,735.363669 C909.165924,710.100683 863.59913,694.615094 813.572097,694.615094 C761.897583,694.615094 715.004771,711.117982 680.608673,737.906925 C644.760734,717.772234 606.455354,707.71114 567.856977,708.292151 C514.012619,708.292151 465.391962,726.207956 430.634224,755.031498 C404.555874,726.773125 362.645675,708.292151 315.35104,708.292151 C266.569657,708.292151 223.49417,727.90346 197.616731,757.800821 C168.484522,737.228728 130.2711,724.738519 88.4412647,724.738519 C63.6529928,724.593793 38.9669339,729.214401 15.0682792,738.472095 L15.0682792,1023.37303" id="Shape" fill="#95D1F9"/>
                    <path class="one-num" d="M341.632546,639.232643 L314.848155,639.232643 L314.848155,536.977427 C314.848155,536.977427 314.848155,536.589951 314.848155,536.434961 C314.868102,536.112414 314.868102,535.788815 314.848155,535.466267 C314.804835,535.190983 314.744126,534.919127 314.666443,534.652566 L314.448388,533.800117 C314.206172,533.283179 313.964201,532.766575 313.721918,532.24994 L313.249466,531.552481 L312.740672,530.89377 L312.086508,530.235058 L311.686741,529.886327 C311.686741,529.886327 311.686741,529.886327 311.505028,529.886327 L310.741837,529.382609 L310.05133,528.995129 L309.324481,528.723898 C309.0571,528.597975 308.776446,528.506906 308.488604,528.452663 C308.258882,528.431035 308.027819,528.431035 307.798098,528.452663 C307.472093,528.412634 307.142856,528.412634 306.816851,528.452663 L306.635139,528.452663 L306.162687,528.452663 L305.181441,528.452663 L304.490934,528.452663 L303.655057,528.723898 L302.964551,529.072626 L302.201359,529.498851 L301.547195,529.963824 L300.929373,530.545038 C300.711318,530.545038 300.529606,530.971262 300.311551,531.203749 L299.948127,531.629974 L220.357766,642.719937 L220.357766,642.952423 C220.357766,643.18491 220.067026,643.494889 219.885314,643.766124 L219.52189,644.463584 C219.420791,644.728711 219.335816,645.000509 219.267492,645.277284 C219.267492,645.587268 219.08578,645.858503 219.013095,646.129734 C218.998125,646.387806 218.998125,646.646618 219.013095,646.90469 L219.013095,647.912129 L219.013095,648.144615 C219.013095,648.338353 219.013095,648.493347 219.013095,648.687085 C218.995635,648.996788 218.995635,649.307328 219.013095,649.617031 C219.052365,649.905869 219.113127,650.190918 219.194807,650.46948 C219.25066,650.745523 219.323503,651.017345 219.412862,651.283181 L219.739944,652.096882 L220.139711,652.83309 C220.275965,653.093236 220.434099,653.339648 220.612163,653.569298 L221.120957,654.228009 L221.775122,654.847971 L222.138546,655.235448 L222.356601,655.235448 L222.865395,655.584179 C223.13638,655.754306 223.415372,655.909503 223.701272,656.049148 L224.246409,656.281635 C224.55961,656.438296 224.888933,656.555335 225.227655,656.630367 L225.700107,656.630367 C226.207491,656.687485 226.719106,656.687485 227.22649,656.630367 L298.34868,656.630367 L298.34868,683.753766 C298.142769,687.085035 299.692847,690.261624 302.369604,691.993884 C305.046361,693.726147 308.404871,693.726147 311.081628,691.993884 C313.758385,690.261624 315.308462,687.085035 315.102553,683.753766 L315.102553,656.630367 L341.923286,656.630367 C346.539704,656.630367 350.282051,652.640341 350.282051,647.718391 C350.282051,642.796444 346.539704,638.806419 341.923286,638.806419 L341.632546,639.232643 Z M243.834994,639.232643 L298.05794,563.403368 L298.05794,639.232643 L243.834994,639.232643 Z" id="Shape" fill="#FFFFFF"/>
                    <path class="three-num" d="M689.11297,711.063445 C688.277045,708.875211 686.65055,707.128302 684.59264,706.208463 C682.534731,705.288627 680.214684,705.271523 678.144809,706.160934 L653.137408,716.815207 L616.905925,622.355035 L616.65,621.891802 C616.518234,621.588126 616.371802,621.291781 616.211275,621.003948 C616.077348,620.776304 615.930852,620.55718 615.772549,620.347706 C615.589748,620.11609 615.443503,619.884478 615.224142,619.652862 L614.675732,619.073825 L614.017645,618.494789 L613.359555,618.070163 L612.628344,617.645534 C612.366995,617.512993 612.09841,617.396982 611.824012,617.298113 L611.312166,617.298113 L611.056241,617.298113 L610.178789,617.298113 L609.411018,617.298113 L608.570127,617.298113 L607.765795,617.298113 L606.961464,617.491127 L606.193693,617.722739 L605.937768,617.722739 L605.425921,618.03156 L604.69471,618.417583 C604.448448,618.575637 604.215985,618.756496 604.00006,618.958017 C603.777795,619.103364 603.569616,619.271451 603.378529,619.459848 L602.793562,620.11609 C602.610758,620.309104 602.464517,620.54072 602.281716,620.772332 L601.842987,621.505779 C601.699537,621.737572 601.577126,621.983144 601.477381,622.239227 C601.330405,622.518218 601.219727,622.81686 601.14834,623.127081 C601.065527,623.284536 601.003997,623.453451 600.965535,623.628912 L566.013669,757.926805 C566.028714,758.01618 566.028714,758.107653 566.013669,758.197024 C565.996107,758.505566 565.996107,758.814943 566.013669,759.123481 C565.995612,759.393362 565.995612,759.664252 566.013669,759.934134 C565.995444,760.21689 565.995444,760.500628 566.013669,760.783389 C566.013669,761.092207 566.013669,761.401028 566.013669,761.671243 C566.0573,761.93282 566.118384,762.190811 566.196474,762.443293 C566.264849,762.757049 566.350299,763.066381 566.452395,763.36975 C566.452395,763.36975 566.452395,763.36975 566.452395,763.601366 C566.552117,763.88211 566.674431,764.153318 566.818001,764.412019 C566.831767,764.52737 566.831767,764.644087 566.818001,764.759439 C567.068588,765.214543 567.362604,765.641388 567.695456,766.03332 L567.878257,766.264936 L568.719149,767.114188 L569.121314,767.423009 L570.03533,768.040648 L570.400935,768.272261 C570.842534,768.508888 571.308788,768.690261 571.790233,768.812694 L572.411764,768.812694 L572.85049,768.812694 C573.239632,768.85086 573.631284,768.85086 574.020427,768.812694 C574.507235,768.850733 574.99604,768.850733 575.482849,768.812694 L575.921574,768.812694 L576.945267,768.503877 L577.164632,768.503877 L643.521988,740.246889 L653.466454,765.106859 C654.776622,768.453978 657.860322,770.64488 661.290406,770.665612 C662.369943,770.676083 663.440045,770.452737 664.434612,770.00937 C668.750078,768.169872 670.842879,762.990927 669.114359,758.42864 L659.425819,733.452858 L684.433223,722.798585 C686.548811,721.925263 688.239776,720.185381 689.12126,717.974932 C690.002744,715.764488 689.999751,713.271528 689.11297,711.063445 Z M586.926292,745.033592 L610.727196,653.468602 L637.489503,723.49343 L586.926292,745.033592 Z" id="Shape" fill="#FFFFFF"/>
                    <path class="two-num" d="M485.83302,578.842505 C460.243924,562.833834 427.299387,571.877538 412.191895,599.057948 L388.441367,641.876186 C373.389139,669.091257 381.892523,704.129147 407.449031,720.196596 C419.734105,727.905869 434.396172,730.107062 448.207682,726.315625 C462.019191,722.524183 473.847967,713.050912 481.090156,699.981149 L504.840684,657.162915 C519.89291,629.94784 511.389528,594.909954 485.83302,578.842505 Z M415.921018,704.948373 C398.382077,693.84964 392.532648,669.790093 402.814782,651.040521 L426.56531,608.222283 C437.450059,590.723552 459.305366,585.340705 476.314663,595.969277 C493.323963,606.597853 499.541319,629.522421 490.467269,648.1526 L466.752944,690.970838 C456.262998,709.65674 433.557025,715.831525 415.921018,704.79435 L415.921018,704.948373 Z" id="Shape" fill="#FFFFFF"/>
                    <path class="two-five" d="M49.7757966,795.451327 L49.7757966,993.222642 L1031,993.222642 L1031,798.137197 L1030.63255,797.023539 C1001.87433,781.041344 971.241115,773.036976 940.378112,773.440341 C912.236214,773.234 884.276089,779.880334 857.702291,793.093009 C848.88534,791.72162 840.023377,791.021864 831.154168,790.99672 C788.392397,790.99672 749.99407,806.915382 723.721531,832.201811 C694.69313,796.761503 646.46557,773.243816 591.853594,773.243816 C581.55544,773.232436 571.265298,774.063582 561.033887,775.73316 C526.907148,748.940023 481.297652,732.497294 431.140988,732.497294 C379.376737,732.497294 332.435243,750.053672 297.941053,778.353511 C262.179237,757.05572 223.748734,746.378768 184.996695,746.974759 C131.395205,746.974759 82.9839181,765.710295 48.2600733,795.909889" id="Shape" fill="#86B7F2"/>
                    <path class="one-five" d="M70.406299,1023.37303 L882.948718,1023.37303 L882.948718,901.995779 L882.948718,900.190038 C860.821477,900.91776 838.981624,909.556883 818.642508,925.627438 C811.353237,923.826125 804.007646,922.908199 796.653106,922.879573 C761.239945,922.879573 729.44907,943.684865 707.672746,976.580766 C683.637819,930.416587 643.750071,900.111529 598.492819,900.111529 C589.938549,900.114151 581.394791,901.215976 572.92375,903.408968 C540.841747,865.612515 503.439948,846.010904 465.363195,847.038423 C422.449774,847.038423 383.584788,869.884976 355.032658,906.941942 C326.12848,879.455632 294.018537,865.387398 261.492479,865.959449 C216.789223,865.959449 176.475323,890.847286 147.624889,930.652114 C129.172544,897.206634 101.174413,873.810503 69,867.843707 L70.406299,1023.37303 Z" id="Shape" fill="#7D99EA"/>
                </g>
            </g>
        </g>
    </g>
</svg>
