<svg xmlns="http://www.w3.org/2000/svg" viewBox="0 0 51.05 32"><defs><style>.cls-1{fill:#4c4c4c;}.cls-2{fill:#0dcdd6;}</style></defs><title>资源 1</title><g id="图层_2" data-name="图层 2"><g id="图层_1-2" data-name="图层 1"><path class="cls-1" d="M32,24.52a15.76,15.76,0,0,0-3.9-1.91,8.8,8.8,0,0,1-3.35-1.8,2.16,2.16,0,0,1,.17-.62,7.92,7.92,0,0,0,2.58-3.09,11.42,11.42,0,0,0,1.14-4.59,8.92,8.92,0,0,0-2.22-6.65,7,7,0,0,0-5.1-2.18,6.93,6.93,0,0,0-5.15,2.15,8.8,8.8,0,0,0-2.19,6.7,12,12,0,0,0,1.19,4.59,8,8,0,0,0,2.61,3.09,2.07,2.07,0,0,1,.16.6,8.88,8.88,0,0,1-3.35,1.81,15.18,15.18,0,0,0-3.9,1.9C8,26.34,6.8,28.65,7.16,31.21A.91.91,0,0,0,9,31c-.63-4.52,6.07-6.58,6.13-6.6l.06,0c3.33-1.22,4.17-2.31,4.36-2.67a2.94,2.94,0,0,0-.25-2.49.86.86,0,0,0-.33-.35c-1.78-1.11-3-3.56-3.17-6.4A7,7,0,0,1,17.46,7.1a5.1,5.1,0,0,1,3.81-1.58,5.2,5.2,0,0,1,3.8,1.61,7.17,7.17,0,0,1,1.72,5.31c-.12,2.81-1.31,5.25-3.1,6.38a.88.88,0,0,0-.33.36h0a2.92,2.92,0,0,0-.24,2.49c.19.36,1,1.44,4.36,2.67h.05c.07,0,6.77,2.09,6.14,6.6a.9.9,0,0,0,.77,1h.13a.91.91,0,0,0,.9-.79c.35-2.56-.86-4.87-3.5-6.69ZM9.3,22.05a3,3,0,0,0,.07-2.47.87.87,0,0,0-.34-.4,6.29,6.29,0,0,1-2.35-5A5.81,5.81,0,0,1,8,9.82a3.65,3.65,0,0,1,2.83-1,4.79,4.79,0,0,1,1.58.28.92.92,0,0,0,1.17-.54A.93.93,0,0,0,13,7.34,6.75,6.75,0,0,0,10.85,7,5.51,5.51,0,0,0,6.67,8.54a7.57,7.57,0,0,0-1.82,5.71,8.31,8.31,0,0,0,2.9,6.26,1.14,1.14,0,0,1,0,.52,11,11,0,0,1-2.09,1.14l-.1,0a13.19,13.19,0,0,0-3.67,2.16A6,6,0,0,0,.36,26.52a5.37,5.37,0,0,0-.25,3,.92.92,0,0,0,.9.74h.17a.92.92,0,0,0,.73-1.07,3.53,3.53,0,0,1,1.22-3.5,11.18,11.18,0,0,1,3.15-1.84l.11-.05A10.74,10.74,0,0,0,9.1,22.29a.76.76,0,0,0,.2-.24Zm33.11,4.44a5.83,5.83,0,0,0-1.54-2.16,13,13,0,0,0-3.66-2.16l-.1,0A10.43,10.43,0,0,1,35,21a1.14,1.14,0,0,1,0-.52,8.27,8.27,0,0,0,2.9-6.25A7.6,7.6,0,0,0,36.1,8.51a5.51,5.51,0,0,0-4.18-1.59,6.8,6.8,0,0,0-2.17.39A.91.91,0,1,0,30.38,9,4.84,4.84,0,0,1,32,8.75a3.67,3.67,0,0,1,2.83,1,5.79,5.79,0,0,1,1.3,4.35,6.3,6.3,0,0,1-2.35,5,.93.93,0,0,0-.35.41A3.06,3.06,0,0,0,33.47,22a.79.79,0,0,0,.19.25,10.76,10.76,0,0,0,2.72,1.55l.1,0a11.33,11.33,0,0,1,3.16,1.84,3.55,3.55,0,0,1,1.22,3.5.91.91,0,0,0,.72,1.07l.17,0a.92.92,0,0,0,.9-.74,5.3,5.3,0,0,0-.24-3.05Z"/><path class="cls-2" d="M50.24,5.61h-4.8V.81a.81.81,0,1,0-1.62,0v4.8H39a.81.81,0,0,0,0,1.62h4.8V12a.82.82,0,0,0,.24.57.82.82,0,0,0,1.14,0,.82.82,0,0,0,.24-.57V7.23h4.8a.81.81,0,1,0,0-1.62Z"/></g></g></svg>