<?xml version="1.0" encoding="UTF-8"?>
<svg width="99px" height="116px" viewBox="0 0 99 116" version="1.1" xmlns="http://www.w3.org/2000/svg" xmlns:xlink="http://www.w3.org/1999/xlink">
  <!-- Generator: Sketch 64 (93537) - https://sketch.com -->
  <title>编组</title>
  <desc>Created with Sketch.</desc>
  <defs>
    <linearGradient x1="52.6177822%" y1="0%" x2="50%" y2="100%" id="linearGradient-1">
      <stop stop-color="#3649D0" offset="0%"></stop>
      <stop stop-color="#4D49CB" offset="15.9616658%"></stop>
      <stop stop-color="#494EA7" offset="100%"></stop>
    </linearGradient>
    <linearGradient x1="50%" y1="0%" x2="50%" y2="100%" id="linearGradient-2">
      <stop stop-color="#8855FF" offset="0%"></stop>
      <stop stop-color="#8193FF" offset="100%"></stop>
    </linearGradient>
    <linearGradient x1="50%" y1="0%" x2="50%" y2="100%" id="linearGradient-3">
      <stop stop-color="#EAA16A" offset="0%"></stop>
      <stop stop-color="#D97D46" offset="100%"></stop>
    </linearGradient>
    <linearGradient x1="41.7578125%" y1="100%" x2="41.7578125%" y2="2.89537584%" id="linearGradient-4">
      <stop stop-color="#ED8F60" offset="0%"></stop>
      <stop stop-color="#F6B658" offset="100%"></stop>
    </linearGradient>
  </defs>
  <g id="页面-1备份" stroke="none" stroke-width="1" fill="none" fill-rule="evenodd">
    <g id="iPhone-8" transform="translate(-93.000000, -1703.000000)">
      <rect id="矩形" fill="url(#linearGradient-1)" x="0" y="0" width="1080" height="4720"></rect>
      <polygon id="矩形" fill="url(#linearGradient-2)" points="0 1041 261.710938 1041 331.710938 958.555556 729.414063 960 799.414063 1041 1080 1041 1077 4720 -3 4720"></polygon>
      <rect id="矩形" fill="#FFFFFF" x="57.6" y="1105.92" width="964.8" height="3417.12" rx="28.8"></rect>
      <g id="编组-4" transform="translate(93.600000, 1673.280000)">
        <g id="编组" transform="translate(0.000000, 30.240000)">
          <polygon id="路径-109" fill="#ED8955" points="41.2613372 48.2232558 0 101.29186 24.7433077 94.8950581 29.6904486 114.84157 53.3171512 59.2009762"></polygon>
          <polygon id="路径-109" fill="#ED8955" transform="translate(70.863227, 81.532413) scale(-1, 1) translate(-70.863227, -81.532413) " points="85.4659884 48.2232558 44.2046512 101.29186 68.9479588 94.8950581 73.8950997 114.84157 97.5218023 59.2009762"></polygon>
          <path d="M47.5534884,0 C52.4005969,0 56.6147592,2.70996469 58.7635156,6.69743432 C62.7456614,4.49402392 67.782229,4.50494108 71.8653104,7.15652515 C75.912348,9.7847021 77.9704202,14.3237983 77.6239364,18.8186141 C82.1075074,19.113926 86.2970863,21.780806 88.3303928,26.1412459 C90.3941722,30.5670351 89.6935511,35.5730334 86.9370393,39.2126258 C90.5668288,41.8976741 92.6494061,46.4351323 91.9768337,51.2207338 C91.3002473,56.0348963 88.0127509,59.8391586 83.7466511,61.4034894 C85.3556968,65.6449325 84.6387804,70.6125796 81.4540766,74.2761623 C78.278894,77.928792 73.478649,79.3326481 69.0650608,78.3470575 C68.1215196,82.805573 64.8058943,86.6095296 60.1185081,87.953616 C55.4868929,89.2817102 50.718381,87.8633345 47.5533397,84.6631901 C44.3885289,87.8633544 39.6200513,89.2817009 34.9884687,87.953616 C30.3010825,86.6095296 26.9854572,82.805573 26.0415644,78.3457428 C21.6283277,79.3326481 16.8280827,77.928792 13.6529001,74.2761623 C10.4681963,70.6125796 9.75127991,65.6449325 11.3602086,61.4030918 C7.09473792,59.8397511 3.80678217,56.0352712 3.13014306,51.2207338 C2.4575556,46.4350253 4.54024107,41.8974713 8.16984982,39.2116058 C5.41342567,35.5730334 4.71280451,30.5670351 6.77658392,26.1412459 C8.80989041,21.780806 12.9994694,19.113926 17.4836676,18.818192 C17.1365566,14.3237983 19.1946288,9.7847021 23.2416664,7.15652515 C27.3247386,4.50494702 32.3612928,4.49402397 36.3434357,6.69696514 C38.4922176,2.70996469 42.7063799,0 47.5534884,0 Z M41.3816253,23.8569628 L41.3085348,23.9929806 C40.3311846,25.762331 38.9169933,27.3238811 37.1033631,28.5016663 C35.2068585,29.7332708 33.1046482,30.3951764 30.9979385,30.5301509 C31.1663203,32.6464614 30.8049096,34.8349169 29.8431709,36.8973721 C28.9119763,38.8943255 27.5285313,40.5360766 25.8716541,41.7575409 C27.1448681,43.4313602 28.0199033,45.4464287 28.3336169,47.6786165 C28.6432511,49.8817783 28.3689497,52.0323478 27.6286072,53.9738738 C29.5863899,54.6876389 31.3966215,55.8939654 32.8611365,57.5786972 C34.3349527,59.2741287 35.2802551,61.2488453 35.7111119,63.3016638 C37.7250516,62.8478548 39.8788134,62.8790695 42.0037599,63.4883881 C44.1844787,64.1136991 46.0682933,65.2714249 47.5545119,66.7799125 C49.0386834,65.2714249 50.9224981,64.1136991 53.1032169,63.4883881 C55.2281373,62.8790769 57.3818725,62.8478556 59.3963594,63.3015653 C59.8267216,61.2488453 60.772024,59.2741287 62.2458402,57.5786972 C63.7103552,55.8939654 65.5205868,54.6876389 67.4791371,53.9735211 C66.738027,52.0323478 66.4637257,49.8817783 66.7733599,47.6786165 C67.0870734,45.4464287 67.9621087,43.4313602 69.2357492,41.7560268 C67.5788325,40.5365358 66.1951307,38.8946048 65.2638058,36.8973721 C64.3020672,34.8349169 63.9406565,32.6464614 64.1078723,30.5290031 C62.0016628,30.3949668 59.899818,29.7330758 58.0036136,28.5016663 C56.14362,27.2937723 54.7037486,25.6822415 53.7243443,23.8568816 C51.8976197,24.8725992 49.7931194,25.4511628 47.5534884,25.4511628 C45.3139924,25.4511628 43.2096109,24.872669 41.3816253,23.8569628 Z" id="椭圆形-2" fill="url(#linearGradient-3)"></path>
          <circle id="椭圆形" fill="url(#linearGradient-4)" cx="46.8837209" cy="45.544186" r="33.4883721"></circle>
          <path d="M45.60768,62.16448 C51.2928,62.16448 56.09088,58.9792 56.09088,53.49568 C56.09088,49.58464 53.5104,47.0848 50.12352,46.15744 L50.12352,45.95584 C53.3088,44.70592 55.1232,42.36736 55.1232,39.14176 C55.1232,34.02112 51.21216,31.19872 45.4464,31.19872 C41.93856,31.19872 39.07584,32.60992 36.49536,34.86784 L39.51936,38.49664 C41.29344,36.88384 43.0272,35.87584 45.16416,35.83552 C47.70432,35.87584 49.15584,37.24672 49.15584,39.58528 C49.15584,42.2464 47.38176,44.14144 41.89824,44.14144 L41.89824,48.41536 C48.38976,48.41536 50.12352,50.22976 50.12352,53.17312 C50.12352,55.83424 48.0672,57.32608 45.0432,57.32608 C42.34176,57.32608 40.16448,55.99552 38.3904,54.26176 L35.60832,58.01152 C37.70496,60.3904 40.89024,62.16448 45.60768,62.16448 Z" id="3" fill="#FFFFFF" fill-rule="nonzero"></path>
        </g>
      </g>
    </g>
  </g>
</svg>
